<?xml version="1.0" standalone="no"?>
<!DOCTYPE svg PUBLIC "-//W3C//DTD SVG 20010904//EN"
 "http://www.w3.org/TR/2001/REC-SVG-20010904/DTD/svg10.dtd">
<svg version="1.0" xmlns="http://www.w3.org/2000/svg"
 width="200.000000pt" height="200.000000pt" viewBox="0 0 200.000000 200.000000"
 preserveAspectRatio="xMidYMid meet">

<g transform="translate(0.000000,200.000000) scale(0.100000,-0.100000)"
fill="#000000" stroke="none">
<path d="M663 1325 c-7 -20 -8 -20 62 -37 53 -12 62 -18 77 -48 9 -19 17 -38
18 -42 0 -4 -45 -9 -99 -10 l-99 -3 81 -112 c45 -61 126 -171 180 -245 l97
-133 0 -92 0 -93 -65 0 c-58 0 -65 -2 -65 -20 0 -19 7 -20 150 -20 143 0 150
1 150 20 0 18 -7 20 -65 20 l-65 0 0 91 0 91 127 173 128 174 21 -19 c11 -11
25 -20 30 -20 6 0 54 44 107 99 92 93 97 100 97 140 0 89 -92 130 -170 77
l-36 -24 -29 24 c-45 36 -107 33 -147 -6 -26 -27 -30 -36 -26 -75 l3 -46 -129
3 -130 3 -21 52 c-11 28 -23 55 -27 58 -6 7 -114 34 -136 35 -7 0 -15 -7 -19
-15z m632 -45 l31 -30 23 24 c54 57 127 55 151 -5 19 -44 -1 -78 -93 -165 -76
-71 -80 -74 -98 -58 -18 16 -17 19 26 80 l46 63 -113 3 -113 3 -3 41 c-3 36 1
45 25 64 35 28 76 21 118 -20z m-430 -197 c15 -38 29 -74 32 -80 4 -9 -7 -13
-38 -12 -43 0 -45 2 -96 74 -29 40 -53 76 -53 79 0 3 29 6 64 6 l64 0 27 -67z
m340 27 l38 -39 -28 -41 -28 -41 -120 3 -120 3 -29 69 c-15 38 -28 73 -28 78
0 4 62 8 138 8 l138 0 39 -40z m85 32 c0 -5 -7 -17 -14 -28 -15 -19 -16 -18
-43 9 l-28 27 43 0 c23 0 42 -4 42 -8z m-140 -197 c0 -3 -33 -50 -74 -106
l-74 -101 -54 74 c-30 40 -64 88 -77 106 l-22 32 150 0 c83 0 151 -2 151 -5z"/>
</g>
</svg>
