<?xml version="1.0" standalone="no"?>
<!DOCTYPE svg PUBLIC "-//W3C//DTD SVG 20010904//EN"
 "http://www.w3.org/TR/2001/REC-SVG-20010904/DTD/svg10.dtd">
<svg version="1.0" xmlns="http://www.w3.org/2000/svg"
 width="200.000000pt" height="200.000000pt" viewBox="0 0 200.000000 200.000000"
 preserveAspectRatio="xMidYMid meet">
<metadata>
Created by potrace 1.16, written by Peter Selinger 2001-2019
</metadata>
<g transform="translate(0.000000,200.000000) scale(0.100000,-0.100000)"
fill="#000000" stroke="none">
<path d="M640 1374 c0 -9 18 -38 41 -65 l40 -48 -57 -3 c-32 -2 -59 -8 -61
-14 -2 -6 70 -74 161 -150 l165 -139 0 -157 1 -157 -47 -3 c-35 -2 -48 -7 -48
-18 0 -12 20 -16 109 -18 79 -2 112 1 117 10 13 20 0 28 -47 28 l-44 0 0 158
0 158 102 86 103 86 28 -20 28 -20 49 32 c26 17 67 51 89 75 47 51 53 90 21
142 -22 37 -53 48 -108 39 -46 -7 -48 -7 -94 0 -73 12 -120 -18 -133 -82 l-6
-34 -139 0 -139 0 -53 65 c-51 64 -78 81 -78 49z m557 -39 c33 -14 40 -14 69
0 71 33 134 -38 89 -102 -26 -37 -114 -96 -133 -88 -14 6 -10 13 26 45 68 61
60 70 -58 70 -84 0 -100 2 -100 16 0 33 29 65 68 73 1 1 19 -6 39 -14z m-102
-145 l29 -30 -134 0 c-124 0 -135 2 -157 22 -13 12 -23 25 -23 30 0 4 58 8
128 8 l128 0 29 -30z m-231 -110 c16 -21 35 -41 43 -44 25 -10 26 24 3 49 -13
14 -21 27 -18 30 3 3 51 4 106 3 l100 -3 -74 -63 -75 -64 -42 35 c-105 88
-113 96 -92 96 12 0 32 -16 49 -39z"/>
</g>
</svg>
